<svg width="779" height="567" viewBox="0 0 779 567" fill="none" xmlns="http://www.w3.org/2000/svg">
<path d="M604 304H601.943C601.943 198.257 522.566 112.23 425 112.23C327.433 112.23 248.057 198.257 248.057 304H246C246 197.028 326.299 110 425 110C523.701 110 604 197.028 604 304Z" fill="#3F3D56"/>
<path d="M104 372C161.438 372 208 325.661 208 268.5C208 211.339 161.438 165 104 165C46.5624 165 0 211.339 0 268.5C0 325.661 46.5624 372 104 372Z" fill="#7CBB8C"/>
<path opacity="0.2" d="M180.733 199C190.402 221.666 191.714 247.039 184.434 270.585C177.153 294.13 161.755 314.315 140.991 327.531C120.227 340.748 95.4495 346.134 71.0867 342.729C46.7238 339.324 24.363 327.349 8 308.944C13.9068 322.792 22.7474 335.187 33.9093 345.271C45.0712 355.355 58.2874 362.887 72.6424 367.345C86.9975 371.802 102.148 373.079 117.044 371.087C131.941 369.094 146.227 363.88 158.912 355.806C171.598 347.731 182.38 336.99 190.512 324.325C198.644 311.66 203.931 297.375 206.006 282.459C208.082 267.544 206.897 252.354 202.533 237.943C198.169 223.532 190.73 210.244 180.733 199Z" fill="black"/>
<path d="M104.5 268H104.789L110 563H99L104.5 268Z" fill="#3F3D56"/>
<path d="M123.047 428.752L120.654 424.208L103.487 433.246L105.88 437.79L123.047 428.752Z" fill="#3F3D56"/>
<path d="M704.5 407C745.645 407 779 373.869 779 333C779 292.131 745.645 259 704.5 259C663.355 259 630 292.131 630 333C630 373.869 663.355 407 704.5 407Z" fill="#7CBB8C"/>
<path opacity="0.2" d="M760.125 283C767.073 299.246 768.016 317.432 762.784 334.309C757.552 351.186 746.487 365.653 731.566 375.126C716.645 384.599 698.841 388.461 681.334 386.02C663.827 383.579 647.758 374.996 636 361.804C640.245 371.729 646.597 380.614 654.618 387.842C662.639 395.07 672.136 400.468 682.452 403.663C692.767 406.858 703.654 407.774 714.358 406.345C725.063 404.917 735.329 401.18 744.445 395.393C753.56 389.605 761.309 381.906 767.152 372.828C772.995 363.75 776.795 353.511 778.286 342.82C779.778 332.13 778.926 321.242 775.79 310.913C772.654 300.584 767.309 291.059 760.125 283Z" fill="black"/>
<path d="M705 333H705.21L709 544H701L705 333Z" fill="#3F3D56"/>
<path d="M718.192 447.975L716.478 444.718L704.173 451.196L705.888 454.453L718.192 447.975Z" fill="#3F3D56"/>
<path d="M309.907 286.262C321.261 286.262 330.466 277.058 330.466 265.704C330.466 254.349 321.261 245.145 309.907 245.145C298.553 245.145 289.349 254.349 289.349 265.704C289.349 277.058 298.553 286.262 309.907 286.262Z" fill="#7CBB8C"/>
<path opacity="0.2" d="M325.2 251.972C327.117 256.458 327.378 261.479 325.934 266.139C324.49 270.799 321.436 274.794 317.318 277.409C313.2 280.025 308.286 281.091 303.455 280.417C298.623 279.743 294.188 277.373 290.943 273.731C292.115 276.471 293.868 278.924 296.082 280.92C298.295 282.916 300.916 284.406 303.763 285.289C306.61 286.171 309.615 286.423 312.569 286.029C315.523 285.635 318.357 284.603 320.872 283.005C323.388 281.407 325.527 279.281 327.139 276.775C328.752 274.268 329.8 271.441 330.212 268.489C330.624 265.537 330.389 262.531 329.523 259.679C328.658 256.827 327.183 254.197 325.2 251.972Z" fill="black"/>
<path d="M309.964 265.704H310.02L311.037 323.99H308.891L309.964 265.704Z" fill="#3F3D56"/>
<path d="M313.707 297.452L313.233 296.552L309.835 298.342L310.309 299.241L313.707 297.452Z" fill="#3F3D56"/>
<path d="M137.523 540.038C137.523 540.038 138.205 525.758 152.175 527.418L137.523 540.038Z" fill="#3F3D56"/>
<path d="M133.575 526.449C137.437 526.449 140.567 523.318 140.567 519.457C140.567 515.595 137.437 512.465 133.575 512.465C129.714 512.465 126.583 515.595 126.583 519.457C126.583 523.318 129.714 526.449 133.575 526.449Z" fill="#7CBB8C"/>
<path d="M134.411 531.231H132.438V545.047H134.411V531.231Z" fill="#3F3D56"/>
<path d="M186.866 507.471C186.866 507.471 187.548 493.192 201.518 494.851L186.866 507.471Z" fill="#3F3D56"/>
<path d="M182.919 493.882C186.781 493.882 189.911 490.752 189.911 486.89C189.911 483.029 186.781 479.898 182.919 479.898C179.057 479.898 175.927 483.029 175.927 486.89C175.927 490.752 179.057 493.882 182.919 493.882Z" fill="#7CBB8C"/>
<path d="M183.755 498.665H181.781V512.481H183.755V498.665Z" fill="#3F3D56"/>
<path d="M335.604 396.987C335.604 396.987 336.146 385.645 347.242 386.963L335.604 396.987Z" fill="#3F3D56"/>
<path d="M332.47 386.194C335.537 386.194 338.023 383.707 338.023 380.64C338.023 377.573 335.537 375.087 332.47 375.087C329.402 375.087 326.916 377.573 326.916 380.64C326.916 383.707 329.402 386.194 332.47 386.194Z" fill="#7CBB8C"/>
<path d="M333.134 389.992H331.566V400.965H333.134V389.992Z" fill="#3F3D56"/>
<path d="M552.715 361.46C552.715 361.46 553.256 350.118 564.352 351.436L552.715 361.46Z" fill="#3F3D56"/>
<path d="M549.579 350.667C552.646 350.667 555.132 348.18 555.132 345.113C555.132 342.046 552.646 339.56 549.579 339.56C546.512 339.56 544.025 342.046 544.025 345.113C544.025 348.18 546.512 350.667 549.579 350.667Z" fill="#7CBB8C"/>
<path d="M550.243 354.465H548.676V365.438H550.243V354.465Z" fill="#3F3D56"/>
<path d="M345.474 426.593C345.474 426.593 346.015 415.251 357.111 416.569L345.474 426.593Z" fill="#3F3D56"/>
<path d="M342.339 415.8C345.406 415.8 347.892 413.313 347.892 410.246C347.892 407.179 345.406 404.693 342.339 404.693C339.272 404.693 336.785 407.179 336.785 410.246C336.785 413.313 339.272 415.8 342.339 415.8Z" fill="#7CBB8C"/>
<path d="M343.002 419.598H341.435V430.571H343.002V419.598Z" fill="#3F3D56"/>
<path d="M321.789 448.303C321.789 448.303 322.33 436.962 333.426 438.28L321.789 448.303Z" fill="#3F3D56"/>
<path d="M318.654 437.511C321.721 437.511 324.208 435.024 324.208 431.957C324.208 428.89 321.721 426.404 318.654 426.404C315.587 426.404 313.101 428.89 313.101 431.957C313.101 435.024 315.587 437.511 318.654 437.511Z" fill="#7CBB8C"/>
<path d="M319.318 441.309H317.75V452.282H319.318V441.309Z" fill="#3F3D56"/>
<path d="M586.268 380.21C586.268 380.21 586.809 368.868 597.905 370.187L586.268 380.21Z" fill="#3F3D56"/>
<path d="M583.133 369.417C586.2 369.417 588.686 366.931 588.686 363.864C588.686 360.796 586.2 358.31 583.133 358.31C580.066 358.31 577.579 360.796 577.579 363.864C577.579 366.931 580.066 369.417 583.133 369.417Z" fill="#7CBB8C"/>
<path d="M583.796 373.215H582.229V384.189H583.796V373.215Z" fill="#3F3D56"/>
<path d="M266.524 404.882C266.524 404.882 267.066 393.54 278.162 394.858L266.524 404.882Z" fill="#3F3D56"/>
<path d="M263.389 394.089C266.457 394.089 268.943 391.602 268.943 388.535C268.943 385.468 266.457 382.982 263.389 382.982C260.322 382.982 257.836 385.468 257.836 388.535C257.836 391.602 260.322 394.089 263.389 394.089Z" fill="#7CBB8C"/>
<path d="M264.054 397.887H262.486V408.86H264.054V397.887Z" fill="#3F3D56"/>
<path d="M523.108 348.631C523.108 348.631 523.65 337.289 534.746 338.607L523.108 348.631Z" fill="#3F3D56"/>
<path d="M519.973 337.838C523.041 337.838 525.527 335.351 525.527 332.284C525.527 329.217 523.041 326.731 519.973 326.731C516.906 326.731 514.42 329.217 514.42 332.284C514.42 335.351 516.906 337.838 519.973 337.838Z" fill="#7CBB8C"/>
<path d="M520.637 341.636H519.069V352.609H520.637V341.636Z" fill="#3F3D56"/>
<path d="M51.666 542.998C51.666 542.998 52.3475 528.719 66.318 530.378L51.666 542.998Z" fill="#3F3D56"/>
<path d="M47.7187 529.409C51.5804 529.409 54.7109 526.279 54.7109 522.417C54.7109 518.556 51.5804 515.425 47.7187 515.425C43.8571 515.425 40.7266 518.556 40.7266 522.417C40.7266 526.279 43.8571 529.409 47.7187 529.409Z" fill="#7CBB8C"/>
<path d="M48.5548 534.192H46.5811V548.008H48.5548V534.192Z" fill="#3F3D56"/>
<path d="M731.613 539.051C731.613 539.051 732.295 524.771 746.265 526.431L731.613 539.051Z" fill="#3F3D56"/>
<path d="M727.666 525.462C731.528 525.462 734.658 522.331 734.658 518.47C734.658 514.608 731.528 511.478 727.666 511.478C723.804 511.478 720.674 514.608 720.674 518.47C720.674 522.331 723.804 525.462 727.666 525.462Z" fill="#7CBB8C"/>
<path d="M728.502 530.244H726.528V544.06H728.502V530.244Z" fill="#3F3D56"/>
<path d="M674.375 505.498C674.375 505.498 675.056 491.218 689.027 492.878L674.375 505.498Z" fill="#3F3D56"/>
<path d="M670.428 491.909C674.289 491.909 677.42 488.778 677.42 484.917C677.42 481.055 674.289 477.924 670.428 477.924C666.566 477.924 663.436 481.055 663.436 484.917C663.436 488.778 666.566 491.909 670.428 491.909Z" fill="#7CBB8C"/>
<path d="M671.264 496.691H669.29V510.507H671.264V496.691Z" fill="#3F3D56"/>
<path d="M666.48 555.827C666.48 555.827 667.162 541.548 681.133 543.208L666.48 555.827Z" fill="#3F3D56"/>
<path d="M662.533 542.239C666.395 542.239 669.525 539.108 669.525 535.246C669.525 531.385 666.395 528.254 662.533 528.254C658.672 528.254 655.541 531.385 655.541 535.246C655.541 539.108 658.672 542.239 662.533 542.239Z" fill="#7CBB8C"/>
<path d="M663.369 547.021H661.396V560.837H663.369V547.021Z" fill="#3F3D56"/>
<path d="M63.0264 566.485C63.0264 566.485 373.888 484.575 370.927 400.692C365.499 377.501 327.998 371.58 327.998 371.58C327.998 371.58 239.181 359.737 287.537 331.118C335.893 302.499 468.133 309.407 468.133 309.407C468.133 309.407 331.946 331.118 392.144 342.961C440.501 345.921 502.673 358.75 502.673 358.75C502.673 358.75 628.991 385.396 646.755 450.529C664.518 515.661 649.715 565.991 649.715 565.991L63.0264 566.485Z" fill="#E6E6E6"/>
<path d="M401.607 566.804L400.443 565.177C402.088 564.001 403.708 562.832 405.303 561.669L406.48 563.287C404.879 564.452 403.255 565.624 401.607 566.804Z" fill="white"/>
<path d="M468.129 68.1187L477.214 60.8527C470.156 60.074 467.256 63.9231 466.07 66.9696C460.556 64.6801 454.554 67.6806 454.554 67.6806L472.731 74.2795C471.814 71.8302 470.217 69.6931 468.129 68.1187Z" fill="#3F3D56"/>
<path d="M299.376 124.37L308.461 117.104C301.403 116.325 298.503 120.174 297.317 123.221C291.803 120.931 285.801 123.932 285.801 123.932L303.978 130.53C303.061 128.081 301.464 125.944 299.376 124.37Z" fill="#3F3D56"/>
<path d="M343.784 7.92018L352.869 0.654124C345.811 -0.124506 342.912 3.72451 341.725 6.77105C336.211 4.48158 330.209 7.48205 330.209 7.48205L348.386 14.0809C347.469 11.6316 345.873 9.49452 343.784 7.92018Z" fill="#3F3D56"/>
</svg>
